ffmpeg started on 2025-06-20 at 16:54:42
Report written to "D:\Convert\FFMetrics\reports\ssim_report-6.txt"
Log level: 32
Command line:
ffmpeg -hide_banner -nostdin -i "G:\\\xc0\xed\xe8\xec\xe5\\[\xd2\xee\xef]\\\xc2\xee\xeb\xf7\xe8\xf6\xe0 \xe8 \xef\xf0\xff\xed\xee\xf1\xf2\xe8\\\xd2\xee\xf0\xe3\xee\xe2\xe5\xf6 \xe2\xf1\xf2\xf0\xe5\xf7\xe0\xe5\xf2 \xec\xf3\xe4\xf0\xf3\xfe \xe2\xee\xeb\xf7\xe8\xf6\xf3\\DC_Ookami_to_Koushinryou_Merchant_Meets_the_Wise_Wolf_07_Telegram_HEVC.mkv" -i "G:\\\xc0\xed\xe8\xec\xe5\\[\xd2\xee\xef]\\\xc2\xee\xeb\xf7\xe8\xf6\xe0 \xe8 \xef\xf0\xff\xed\xee\xf1\xf2\xe8\\\xd2\xee\xf0\xe3\xee\xe2\xe5\xf6 \xe2\xf1\xf2\xf0\xe5\xf7\xe0\xe5\xf2 \xec\xf3\xe4\xf0\xf3\xfe \xe2\xee\xeb\xf7\xe8\xf6\xf3\\DC_Ookami_to_Koushinryou_Merchant_Meets_the_Wise_Wolf_07_Telegram.mp4" -lavfi "[0:v]settb=AVTB,setpts=PTS-STARTPTS,format=pix_fmts=yuv420p10,fps=24000/1001,scale=1920:1080:flags=bicubic[main];[1:v]settb=AVTB,setpts=PTS-STARTPTS,format=pix_fmts=yuv420p,fps=24000/1001,scale=1920:1080:flags=bicubic[ref];[main][ref]ssim=eof_action=endall:stats_file='D\\:/Convert/FFMetrics/logs/ssim_logfile-6.txt'" -f null -
Input #0, matroska,webm, from 'G:\Аниме\[Топ]\Волчица и пряности\Торговец встречает мудрую волчицу\DC_Ookami_to_Koushinryou_Merchant_Meets_the_Wise_Wolf_07_Telegram_HEVC.mkv':
  Metadata:
    COMPATIBLE_BRANDS: isomiso2avc1mp41
    MAJOR_BRAND     : isom
    MINOR_VERSION   : 512
    ENCODER         : Lavf61.7.100
  Duration: 00:23:57.65, start: -0.021000, bitrate: 902 kb/s
  Stream #0:0: Video: hevc (Main 10), yuv420p10le(tv, bt709, progressive), 1920x1080 [SAR 1:1 DAR 16:9], 23.98 fps, 23.98 tbr, 1k tbn (default)
      Metadata:
        HANDLER_NAME    : VideoHandler
        VENDOR_ID       : [0][0][0][0]
        ENCODER         : Lavc61.19.100 libx265
        BPS             : 705654
        DURATION        : 00:23:56.559708333
        NUMBER_OF_FRAMES: 34443
        NUMBER_OF_BYTES : 126714240
        _STATISTICS_WRITING_APP: mkvpropedit v66.0.0 ('Josie') 64-bit
        _STATISTICS_WRITING_DATE_UTC: 2025-06-20 10:07:10
        _STATISTICS_TAGS: BPS DURATION NUMBER_OF_FRAMES NUMBER_OF_BYTES
  Stream #0:1: Audio: aac (LC), 48000 Hz, stereo, fltp (default)
      Metadata:
        HANDLER_NAME    : SoundHandler
        VENDOR_ID       : [0][0][0][0]
        ENCODER         : Lavc61.19.100 aac
        BPS             : 193171
        DURATION        : 00:23:57.653000000
        NUMBER_OF_FRAMES: 67391
        NUMBER_OF_BYTES : 34714128
        _STATISTICS_WRITING_APP: mkvpropedit v66.0.0 ('Josie') 64-bit
        _STATISTICS_WRITING_DATE_UTC: 2025-06-20 10:07:10
        _STATISTICS_TAGS: BPS DURATION NUMBER_OF_FRAMES NUMBER_OF_BYTES
Input #1, mov,mp4,m4a,3gp,3g2,mj2, from 'G:\Аниме\[Топ]\Волчица и пряности\Торговец встречает мудрую волчицу\DC_Ookami_to_Koushinryou_Merchant_Meets_the_Wise_Wolf_07_Telegram.mp4':
  Metadata:
    major_brand     : isom
    minor_version   : 512
    compatible_brands: isomiso2avc1mp41
    encoder         : Lavf60.16.100
  Duration: 00:23:57.63, start: 0.000000, bitrate: 3552 kb/s
  Stream #1:0[0x1](und): Video: h264 (High) (avc1 / 0x31637661), yuv420p(tv, bt709, progressive), 1920x1080 [SAR 1:1 DAR 16:9], 3406 kb/s, 23.98 fps, 23.98 tbr, 24k tbn (default)
      Metadata:
        handler_name    : VideoHandler
        vendor_id       : [0][0][0][0]
        encoder         : Lavc60.31.102 h264_qsv
  Stream #1:1[0x2](und): Audio: aac (HE-AACv2) (mp4a / 0x6134706D), 48000 Hz, stereo, fltp, 144 kb/s (default)
      Metadata:
        handler_name    : SoundHandler
        vendor_id       : [0][0][0][0]
Stream mapping:
  Stream #0:0 (hevc) -> settb:default
  Stream #1:0 (h264) -> settb:default
  ssim:default -> Stream #0:0 (wrapped_avframe)
  Stream #0:1 -> #0:1 (aac (native) -> pcm_s16le (native))
Output #0, null, to 'pipe:':
  Metadata:
    COMPATIBLE_BRANDS: isomiso2avc1mp41
    MAJOR_BRAND     : isom
    MINOR_VERSION   : 512
    encoder         : Lavf61.7.100
  Stream #0:0: Video: wrapped_avframe, yuv420p10le(tv, bt709, progressive), 1920x1080 [SAR 1:1 DAR 16:9], q=2-31, 200 kb/s, 23.98 fps, 23.98 tbn
      Metadata:
        encoder         : Lavc61.19.100 wrapped_avframe
  Stream #0:1: Audio: pcm_s16le, 48000 Hz, stereo, s16, 1536 kb/s (default)
      Metadata:
        HANDLER_NAME    : SoundHandler
        VENDOR_ID       : [0][0][0][0]
        _STATISTICS_TAGS: BPS DURATION NUMBER_OF_FRAMES NUMBER_OF_BYTES
        BPS             : 193171
        DURATION        : 00:23:57.653000000
        NUMBER_OF_FRAMES: 67391
        NUMBER_OF_BYTES : 34714128
        _STATISTICS_WRITING_APP: mkvpropedit v66.0.0 ('Josie') 64-bit
        _STATISTICS_WRITING_DATE_UTC: 2025-06-20 10:07:10
        encoder         : Lavc61.19.100 pcm_s16le
frame=  196 fps=0.0 q=-0.0 size=N/A time=00:00:08.17 bitrate=N/A speed=15.6x    frame=  471 fps=457 q=-0.0 size=N/A time=00:00:19.64 bitrate=N/A speed=  19x    frame=  747 fps=479 q=-0.0 size=N/A time=00:00:31.15 bitrate=N/A speed=  20x    frame= 1022 fps=494 q=-0.0 size=N/A time=00:00:42.62 bitrate=N/A speed=20.6x    frame= 1243 fps=482 q=-0.0 size=N/A time=00:00:51.84 bitrate=N/A speed=20.1x    frame= 1461 fps=470 q=-0.0 size=N/A time=00:01:00.93 bitrate=N/A speed=19.6x    frame= 1642 fps=454 q=-0.0 size=N/A time=00:01:08.48 bitrate=N/A speed=18.9x    frame= 1851 fps=449 q=-0.0 size=N/A time=00:01:17.20 bitrate=N/A speed=18.7x    frame= 2066 fps=444 q=-0.0 size=N/A time=00:01:26.16 bitrate=N/A speed=18.5x    frame= 2294 fps=444 q=-0.0 size=N/A time=00:01:35.67 bitrate=N/A speed=18.5x    frame= 2522 fps=444 q=-0.0 size=N/A time=00:01:45.18 bitrate=N/A speed=18.5x    frame= 2757 fps=445 q=-0.0 size=N/A time=00:01:54.98 bitrate=N/A speed=18.6x    frame= 3007 fps=448 q=-0.0 size=N/A time=00:02:05.41 bitrate=N/A speed=18.7x    frame= 3249 fps=449 q=-0.0 size=N/A time=00:02:15.51 bitrate=N/A speed=18.7x    frame= 3473 fps=449 q=-0.0 size=N/A time=00:02:24.85 bitrate=N/A speed=18.7x    frame= 3715 fps=450 q=-0.0 size=N/A time=00:02:34.94 bitrate=N/A speed=18.8x    frame= 3959 fps=451 q=-0.0 size=N/A time=00:02:45.12 bitrate=N/A speed=18.8x    frame= 4191 fps=451 q=-0.0 size=N/A time=00:02:54.79 bitrate=N/A speed=18.8x    frame= 4428 fps=452 q=-0.0 size=N/A time=00:03:04.68 bitrate=N/A speed=18.8x    frame= 4688 fps=454 q=-0.0 size=N/A time=00:03:15.52 bitrate=N/A speed=18.9x    frame= 4928 fps=454 q=-0.0 size=N/A time=00:03:25.53 bitrate=N/A speed=18.9x    frame= 5170 fps=455 q=-0.0 size=N/A time=00:03:35.63 bitrate=N/A speed=  19x    frame= 5418 fps=456 q=-0.0 size=N/A time=00:03:45.97 bitrate=N/A speed=  19x    frame= 5662 fps=457 q=-0.0 size=N/A time=00:03:56.15 bitrate=N/A speed=  19x    frame= 5925 fps=459 q=-0.0 size=N/A time=00:04:07.12 bitrate=N/A speed=19.1x    frame= 6203 fps=462 q=-0.0 size=N/A time=00:04:18.71 bitrate=N/A speed=19.3x    frame= 6485 fps=465 q=-0.0 size=N/A time=00:04:30.47 bitrate=N/A speed=19.4x    frame= 6767 fps=468 q=-0.0 size=N/A time=00:04:42.24 bitrate=N/A speed=19.5x    frame= 7040 fps=470 q=-0.0 size=N/A time=00:04:53.62 bitrate=N/A speed=19.6x    frame= 7332 fps=473 q=-0.0 size=N/A time=00:05:05.80 bitrate=N/A speed=19.7x    frame= 7619 fps=476 q=-0.0 size=N/A time=00:05:17.77 bitrate=N/A speed=19.9x    frame= 7896 fps=478 q=-0.0 size=N/A time=00:05:29.32 bitrate=N/A speed=19.9x    frame= 8190 fps=481 q=-0.0 size=N/A time=00:05:41.59 bitrate=N/A speed=  20x    frame= 8461 fps=482 q=-0.0 size=N/A time=00:05:52.89 bitrate=N/A speed=20.1x    frame= 8723 fps=483 q=-0.0 size=N/A time=00:06:03.82 bitrate=N/A speed=20.1x    frame= 9000 fps=484 q=-0.0 size=N/A time=00:06:15.37 bitrate=N/A speed=20.2x    frame= 9290 fps=486 q=-0.0 size=N/A time=00:06:27.47 bitrate=N/A speed=20.3x    frame= 9530 fps=486 q=-0.0 size=N/A time=00:06:37.48 bitrate=N/A speed=20.3x    frame= 9771 fps=485 q=-0.0 size=N/A time=00:06:47.53 bitrate=N/A speed=20.2x    frame=10023 fps=486 q=-0.0 size=N/A time=00:06:58.04 bitrate=N/A speed=20.3x    frame=10249 fps=484 q=-0.0 size=N/A time=00:07:07.46 bitrate=N/A speed=20.2x    frame=10487 fps=484 q=-0.0 size=N/A time=00:07:17.39 bitrate=N/A speed=20.2x    frame=10729 fps=483 q=-0.0 size=N/A time=00:07:27.48 bitrate=N/A speed=20.2x    frame=10979 fps=483 q=-0.0 size=N/A time=00:07:37.91 bitrate=N/A speed=20.2x    frame=11238 fps=484 q=-0.0 size=N/A time=00:07:48.71 bitrate=N/A speed=20.2x    frame=11515 fps=485 q=-0.0 size=N/A time=00:08:00.27 bitrate=N/A speed=20.2x    frame=11780 fps=486 q=-0.0 size=N/A time=00:08:11.32 bitrate=N/A speed=20.3x    frame=12056 fps=487 q=-0.0 size=N/A time=00:08:22.83 bitrate=N/A speed=20.3x    frame=12333 fps=488 q=-0.0 size=N/A time=00:08:34.38 bitrate=N/A speed=20.3x    frame=12598 fps=488 q=-0.0 size=N/A time=00:08:45.44 bitrate=N/A speed=20.4x    frame=12854 fps=488 q=-0.0 size=N/A time=00:08:56.11 bitrate=N/A speed=20.4x    frame=13120 fps=489 q=-0.0 size=N/A time=00:09:07.21 bitrate=N/A speed=20.4x    frame=13386 fps=489 q=-0.0 size=N/A time=00:09:18.30 bitrate=N/A speed=20.4x    frame=13656 fps=490 q=-0.0 size=N/A time=00:09:29.56 bitrate=N/A speed=20.4x    frame=13914 fps=490 q=-0.0 size=N/A time=00:09:40.32 bitrate=N/A speed=20.4x    frame=14146 fps=490 q=-0.0 size=N/A time=00:09:50.00 bitrate=N/A speed=20.4x    frame=14405 fps=490 q=-0.0 size=N/A time=00:10:00.80 bitrate=N/A speed=20.4x    frame=14674 fps=490 q=-0.0 size=N/A time=00:10:12.02 bitrate=N/A speed=20.4x    frame=14936 fps=491 q=-0.0 size=N/A time=00:10:22.95 bitrate=N/A speed=20.5x    frame=15209 fps=491 q=-0.0 size=N/A time=00:10:34.34 bitrate=N/A speed=20.5x    frame=15447 fps=491 q=-0.0 size=N/A time=00:10:44.26 bitrate=N/A speed=20.5x    frame=15701 fps=491 q=-0.0 size=N/A time=00:10:54.86 bitrate=N/A speed=20.5x    frame=15971 fps=491 q=-0.0 size=N/A time=00:11:06.12 bitrate=N/A speed=20.5x    frame=16222 fps=491 q=-0.0 size=N/A time=00:11:16.59 bitrate=N/A speed=20.5x    frame=16484 fps=492 q=-0.0 size=N/A time=00:11:27.52 bitrate=N/A speed=20.5x    frame=16760 fps=492 q=-0.0 size=N/A time=00:11:39.03 bitrate=N/A speed=20.5x    frame=17035 fps=493 q=-0.0 size=N/A time=00:11:50.50 bitrate=N/A speed=20.6x    frame=17288 fps=493 q=-0.0 size=N/A time=00:12:01.05 bitrate=N/A speed=20.6x    frame=17574 fps=494 q=-0.0 size=N/A time=00:12:12.98 bitrate=N/A speed=20.6x    frame=17830 fps=494 q=-0.0 size=N/A time=00:12:23.65 bitrate=N/A speed=20.6x    frame=18095 fps=494 q=-0.0 size=N/A time=00:12:34.71 bitrate=N/A speed=20.6x    frame=18356 fps=494 q=-0.0 size=N/A time=00:12:45.59 bitrate=N/A speed=20.6x    frame=18628 fps=495 q=-0.0 size=N/A time=00:12:56.94 bitrate=N/A speed=20.6x    frame=18901 fps=495 q=-0.0 size=N/A time=00:13:08.32 bitrate=N/A speed=20.6x    frame=19179 fps=496 q=-0.0 size=N/A time=00:13:19.92 bitrate=N/A speed=20.7x    frame=19463 fps=496 q=-0.0 size=N/A time=00:13:31.76 bitrate=N/A speed=20.7x    frame=19741 fps=497 q=-0.0 size=N/A time=00:13:43.36 bitrate=N/A speed=20.7x    frame=20007 fps=497 q=-0.0 size=N/A time=00:13:54.45 bitrate=N/A speed=20.7x    frame=20270 fps=497 q=-0.0 size=N/A time=00:14:05.42 bitrate=N/A speed=20.7x    frame=20542 fps=498 q=-0.0 size=N/A time=00:14:16.77 bitrate=N/A speed=20.8x    frame=20800 fps=498 q=-0.0 size=N/A time=00:14:27.53 bitrate=N/A speed=20.8x    frame=21083 fps=498 q=-0.0 size=N/A time=00:14:39.33 bitrate=N/A speed=20.8x    frame=21350 fps=499 q=-0.0 size=N/A time=00:14:50.47 bitrate=N/A speed=20.8x    frame=21618 fps=499 q=-0.0 size=N/A time=00:15:01.65 bitrate=N/A speed=20.8x    frame=21892 fps=499 q=-0.0 size=N/A time=00:15:13.07 bitrate=N/A speed=20.8x    frame=22147 fps=499 q=-0.0 size=N/A time=00:15:23.71 bitrate=N/A speed=20.8x    frame=22408 fps=499 q=-0.0 size=N/A time=00:15:34.60 bitrate=N/A speed=20.8x    frame=22690 fps=500 q=-0.0 size=N/A time=00:15:46.36 bitrate=N/A speed=20.8x    frame=22974 fps=500 q=-0.0 size=N/A time=00:15:58.20 bitrate=N/A speed=20.9x    frame=23257 fps=501 q=-0.0 size=N/A time=00:16:10.01 bitrate=N/A speed=20.9x    frame=23545 fps=502 q=-0.0 size=N/A time=00:16:22.02 bitrate=N/A speed=20.9x    frame=23817 fps=502 q=-0.0 size=N/A time=00:16:33.36 bitrate=N/A speed=20.9x    frame=24114 fps=503 q=-0.0 size=N/A time=00:16:45.75 bitrate=N/A speed=  21x    frame=24406 fps=503 q=-0.0 size=N/A time=00:16:57.93 bitrate=N/A speed=  21x    frame=24695 fps=504 q=-0.0 size=N/A time=00:17:09.98 bitrate=N/A speed=  21x    frame=24963 fps=504 q=-0.0 size=N/A time=00:17:21.16 bitrate=N/A speed=  21x    frame=25202 fps=503 q=-0.0 size=N/A time=00:17:31.13 bitrate=N/A speed=  21x    frame=25446 fps=503 q=-0.0 size=N/A time=00:17:41.31 bitrate=N/A speed=  21x    frame=25695 fps=503 q=-0.0 size=N/A time=00:17:51.69 bitrate=N/A speed=  21x    frame=25908 fps=502 q=-0.0 size=N/A time=00:18:00.57 bitrate=N/A speed=20.9x    frame=26115 fps=501 q=-0.0 size=N/A time=00:18:09.21 bitrate=N/A speed=20.9x    frame=26348 fps=501 q=-0.0 size=N/A time=00:18:18.93 bitrate=N/A speed=20.9x    frame=26595 fps=500 q=-0.0 size=N/A time=00:18:29.23 bitrate=N/A speed=20.9x    frame=26837 fps=500 q=-0.0 size=N/A time=00:18:39.32 bitrate=N/A speed=20.9x    frame=27089 fps=500 q=-0.0 size=N/A time=00:18:49.83 bitrate=N/A speed=20.9x    frame=27329 fps=500 q=-0.0 size=N/A time=00:18:59.84 bitrate=N/A speed=20.8x    frame=27570 fps=499 q=-0.0 size=N/A time=00:19:09.89 bitrate=N/A speed=20.8x    frame=27809 fps=499 q=-0.0 size=N/A time=00:19:19.86 bitrate=N/A speed=20.8x    frame=28044 fps=499 q=-0.0 size=N/A time=00:19:29.66 bitrate=N/A speed=20.8x    frame=28318 fps=499 q=-0.0 size=N/A time=00:19:41.09 bitrate=N/A speed=20.8x    frame=28599 fps=499 q=-0.0 size=N/A time=00:19:52.81 bitrate=N/A speed=20.8x    frame=28866 fps=500 q=-0.0 size=N/A time=00:20:03.95 bitrate=N/A speed=20.8x    frame=29157 fps=500 q=-0.0 size=N/A time=00:20:16.08 bitrate=N/A speed=20.9x    frame=29390 fps=500 q=-0.0 size=N/A time=00:20:25.80 bitrate=N/A speed=20.8x    frame=29620 fps=499 q=-0.0 size=N/A time=00:20:35.40 bitrate=N/A speed=20.8x    frame=29867 fps=499 q=-0.0 size=N/A time=00:20:45.70 bitrate=N/A speed=20.8x    frame=30111 fps=499 q=-0.0 size=N/A time=00:20:55.87 bitrate=N/A speed=20.8x    frame=30317 fps=498 q=-0.0 size=N/A time=00:21:04.47 bitrate=N/A speed=20.8x    frame=30538 fps=497 q=-0.0 size=N/A time=00:21:13.68 bitrate=N/A speed=20.7x    frame=30771 fps=497 q=-0.0 size=N/A time=00:21:23.40 bitrate=N/A speed=20.7x    frame=31002 fps=497 q=-0.0 size=N/A time=00:21:33.04 bitrate=N/A speed=20.7x    frame=31240 fps=496 q=-0.0 size=N/A time=00:21:42.96 bitrate=N/A speed=20.7x    frame=31520 fps=497 q=-0.0 size=N/A time=00:21:54.64 bitrate=N/A speed=20.7x    frame=31778 fps=497 q=-0.0 size=N/A time=00:22:05.40 bitrate=N/A speed=20.7x    frame=31992 fps=496 q=-0.0 size=N/A time=00:22:14.33 bitrate=N/A speed=20.7x    frame=32193 fps=495 q=-0.0 size=N/A time=00:22:22.71 bitrate=N/A speed=20.7x    frame=32317 fps=493 q=-0.0 size=N/A time=00:22:27.88 bitrate=N/A speed=20.6x    frame=32513 fps=492 q=-0.0 size=N/A time=00:22:36.06 bitrate=N/A speed=20.5x    frame=32755 fps=492 q=-0.0 size=N/A time=00:22:46.15 bitrate=N/A speed=20.5x    frame=33023 fps=492 q=-0.0 size=N/A time=00:22:57.33 bitrate=N/A speed=20.5x    frame=33262 fps=492 q=-0.0 size=N/A time=00:23:07.30 bitrate=N/A speed=20.5x    frame=33495 fps=492 q=-0.0 size=N/A time=00:23:17.02 bitrate=N/A speed=20.5x    frame=33738 fps=492 q=-0.0 size=N/A time=00:23:27.15 bitrate=N/A speed=20.5x    frame=33978 fps=492 q=-0.0 size=N/A time=00:23:37.16 bitrate=N/A speed=20.5x    frame=34159 fps=490 q=-0.0 size=N/A time=00:23:44.71 bitrate=N/A speed=20.5x    [Parsed_ssim_10 @ 000001d3d2073240] SSIM Y:0.994409 (22.525445) U:0.994406 (22.522672) V:0.994797 (22.837189) All:0.994473 (22.575406)
[out#0/null @ 000001d3d1815480] video:14800KiB audio:269564KiB subtitle:0KiB other streams:0KiB global headers:0KiB muxing overhead: unknown
frame=34443 fps=491 q=-0.0 Lsize=N/A time=00:23:56.56 bitrate=N/A speed=20.5x    
